<svg xmlns="http://www.w3.org/2000/svg" xmlns:xlink="http://www.w3.org/1999/xlink" version="1.1" id="Layer_1" x="0px" y="0px" style="enable-background:new 0 0 792 612;" xml:space="preserve" viewBox="275.23 107.67 257.04 370.84">
<style type="text/css">
	.st0{fill:#FFFFFF;}
	.st1{fill:#27AAE1;}
	.st2{fill:#005D83;}
	.st3{fill:#1074AB;}
	.st4{fill:#F9B821;}
	.st5{fill:#8DC63F;}
</style>
<g>
	<path class="st1" d="M370.95,432.48c40.15-41.98,55.6-66.85,53.93-87.01c-1.84-22.25-15.53-25.01-29.25-29.58   c-15.41-5.13-29.28-21.12-22.73-53.95c7.03-35.2,42.77-70.73,74.66-93.66c-14.27-19.62-28.95-38.94-43.39-58.44   c-2.83-3.82-4.99-1.96-7.03,0.77c-10.04,13.42-20.29,26.69-30.02,40.32c-14.45,20.24-29.44,40.18-42.49,61.3   c-11.69,18.93-21.94,38.89-31.26,59.11c-10.95,23.77-18.84,48.63-17.99,76.53c-0.76,11.82,1.46,24.34,5.57,36.6   c7.06,21.07,18.75,39.02,34.87,54.37c8.56,8.16,18.08,14.92,28.38,20.12C352.65,450.99,361.83,442.01,370.95,432.48z"/>
	<path class="st2" d="M530.54,329.98c-3.49-22.81-11.81-44.41-21.87-65.09c-13.47-27.68-29.39-54.05-47.24-79.12   c-0.96-1.35-1.95-2.68-2.91-4.02c-30.52,21.94-67.7,54.89-70.95,87.01c-2.68,26.47,8.16,30.09,23.17,35.08   c13.97,4.65,31.35,10.44,33.7,38.77c2.91,35.13-47.83,90.41-85.65,126.4c19.16,7.72,39.15,11.41,60.34,8.52   c16.42-2.24,32-6.5,46.42-14.31c15.37-8.32,28.59-19.47,39.48-33.3C528.31,400.37,536.15,366.66,530.54,329.98z"/>
	<polygon class="st3" points="347.56,235.77 409.98,213.7 410.58,279.91  "/>
	<path class="st0" d="M415.37,271.62l-1.5-50.72c-0.09-2.91-1.5-5.53-3.88-7.2c-2.38-1.67-5.33-2.1-8.09-1.19l-48.18,15.93l0,0   c-3.29,1.09-5.65,3.9-6.16,7.33c-0.5,3.43,0.95,6.8,3.79,8.79l49.68,34.79c2.84,1.99,6.5,2.2,9.56,0.56   C413.64,278.26,415.47,275.08,415.37,271.62z M407.5,274.2c-0.43,0.23-1.56,0.68-2.75-0.16l-49.68-34.79   c-1.2-0.84-1.16-2.05-1.09-2.53c0.07-0.48,0.39-1.65,1.78-2.11l48.18-15.93c1.59-0.53,3.4,0.74,3.45,2.42l1.5,50.72   C408.93,273.27,407.93,273.97,407.5,274.2z"/>
	<circle class="st4" cx="407.15" cy="408.73" r="24.64"/>
	<path class="st0" d="M407.15,437.11c-15.65,0-28.38-12.73-28.38-28.38c0-15.65,12.73-28.38,28.38-28.38   c15.65,0,28.38,12.73,28.38,28.38C435.53,424.38,422.8,437.11,407.15,437.11z M407.15,386.65c-12.18,0-22.09,9.91-22.09,22.09   s9.91,22.09,22.09,22.09c12.18,0,22.09-9.91,22.09-22.09S419.33,386.65,407.15,386.65z"/>
	<circle class="st5" cx="435.53" cy="330.13" r="24.64"/>
	<path class="st0" d="M435.53,358.51c-15.65,0-28.38-12.73-28.38-28.38c0-15.65,12.73-28.38,28.38-28.38   c15.65,0,28.38,12.73,28.38,28.38C463.91,345.78,451.18,358.51,435.53,358.51z M435.53,308.05c-12.18,0-22.09,9.91-22.09,22.09   s9.91,22.09,22.09,22.09c12.18,0,22.09-9.91,22.09-22.09S447.71,308.05,435.53,308.05z"/>
</g>
</svg>